<svg width="75" height="75" viewBox="0 0 75 75" fill="none" xmlns="http://www.w3.org/2000/svg">
<g clip-path="url(#clip0_747_739)">
<path d="M37.0459 74.0918C57.5058 74.0918 74.0918 57.5058 74.0918 37.0459C74.0918 16.586 57.5058 0 37.0459 0C16.586 0 0 16.586 0 37.0459C0 57.5058 16.586 74.0918 37.0459 74.0918Z" fill="#0F2938"/>
<path d="M38.0964 19.3994H34.9185H25.3049C18.947 19.3994 17.7392 23.1788 17.382 27.2631C17.3623 27.4865 17.4375 27.7078 17.5889 27.8731C17.7403 28.0384 17.9547 28.1327 18.1786 28.1327H22.167V30.3434L20.2874 33.2414C20.2032 33.3709 20.1584 33.5224 20.1584 33.6765V60.7178C20.1584 61.1593 20.5162 61.5177 20.9582 61.5177H35.1398C35.5818 61.5177 35.9396 61.1593 35.9396 60.7178V50.0645C35.9396 42.8172 33.4208 35.7554 28.8491 30.1387V28.1327H29.8771C30.0306 28.1327 30.181 28.0885 30.3106 28.0053L31.9939 26.9202L34.2467 30.4234C34.3997 30.6612 34.6573 30.7902 34.9201 30.7902C35.0683 30.7902 35.2182 30.7492 35.352 30.6633C35.7237 30.4245 35.8308 29.9296 35.592 29.558L33.3381 26.0533L35.3525 24.7549C35.4309 24.7043 35.4938 24.6381 35.5493 24.5662H38.0975C38.539 24.5662 38.8973 24.2084 38.8973 23.7663V20.1998C38.8962 19.7577 38.5379 19.3994 38.0964 19.3994ZM34.3395 59.918H21.7575V33.9132L23.5064 31.2173H27.6702C31.9736 36.5376 34.3395 43.216 34.3395 50.065V59.918ZM27.2484 29.6177H23.766V28.1327H27.2484V29.6177ZM29.6409 26.5331H28.0482H22.9662H19.0664C19.5191 22.9367 20.8052 20.9996 25.3043 20.9996H34.1182V23.6469L31.7998 25.1415L29.6409 26.5331ZM37.2966 22.9665H35.7183V20.9996H37.2966V22.9665Z" fill="white"/>
<path d="M56.8693 22.686H41.5498C41.1083 22.686 40.75 22.3283 40.75 21.8862C40.75 21.4442 41.1083 21.0864 41.5498 21.0864H56.8698C57.3113 21.0864 57.6696 21.4442 57.6696 21.8862C57.6691 22.3283 57.3113 22.686 56.8693 22.686Z" fill="white"/>
<path d="M54.4226 30.2444C54.3245 30.2444 54.2248 30.2262 54.1283 30.1884L41.2557 25.0968C40.8446 24.9342 40.6441 24.4698 40.8062 24.0587C40.9683 23.6476 41.4343 23.4476 41.8438 23.6092L54.7164 28.7007C55.1275 28.8634 55.328 29.3278 55.1659 29.7389C55.0422 30.0524 54.7404 30.2444 54.4226 30.2444Z" fill="white"/>
<path d="M41.5504 20.2148C41.2315 20.2148 40.9308 20.0228 40.806 19.7088C40.6439 19.2977 40.8455 18.8332 41.2566 18.6711L54.1292 13.5854C54.5397 13.4244 55.0047 13.6244 55.1668 14.0355C55.3289 14.4466 55.1273 14.911 54.7162 15.0731L41.8436 20.1588C41.7477 20.1961 41.648 20.2148 41.5504 20.2148Z" fill="white"/>
<path d="M54.0089 26.4415C54.5854 26.4415 55.0529 25.9741 55.0529 25.3975C55.0529 24.8209 54.5854 24.3535 54.0089 24.3535C53.4323 24.3535 52.9648 24.8209 52.9648 25.3975C52.9648 25.9741 53.4323 26.4415 54.0089 26.4415Z" fill="white"/>
<path d="M51.9503 19.7604C52.5269 19.7604 52.9943 19.293 52.9943 18.7164C52.9943 18.1398 52.5269 17.6724 51.9503 17.6724C51.3737 17.6724 50.9062 18.1398 50.9062 18.7164C50.9062 19.293 51.3737 19.7604 51.9503 19.7604Z" fill="white"/>
</g>
<defs>
<clipPath id="clip0_747_739">
<rect width="75" height="75" fill="white"/>
</clipPath>
</defs>
</svg>
