<svg width="75" height="75" viewBox="0 0 75 75" fill="none" xmlns="http://www.w3.org/2000/svg">
<g clip-path="url(#clip0_747_669)">
<path d="M37.0459 74.0918C57.5058 74.0918 74.0918 57.5058 74.0918 37.0459C74.0918 16.586 57.5058 0 37.0459 0C16.586 0 0 16.586 0 37.0459C0 57.5058 16.586 74.0918 37.0459 74.0918Z" fill="#0F2938"/>
<path d="M41.1519 41.0798L39.6024 40.7215C39.6882 40.3482 39.7325 39.9611 39.7325 39.5714C39.7325 36.9464 37.765 34.7763 35.156 34.523L34.7054 34.4787L34.5129 34.0687C33.6886 32.3113 31.9061 31.1756 29.9722 31.1756C27.3056 31.1756 25.1078 33.263 24.9686 35.928L24.9436 36.4031L24.5133 36.6062C22.9536 37.3415 22.2562 38.1488 22.1058 39.3927C22.0904 39.5196 22.0749 40.1568 22.0749 40.4416C22.0749 40.5727 22.0808 40.7023 22.0925 40.8303L20.5078 40.971C20.4924 40.7967 20.4844 40.6202 20.4844 40.441C20.4844 40.3301 20.4929 39.4829 20.5265 39.2019C20.7803 37.1026 22.1362 36.041 23.4218 35.3713C23.8286 32.0905 26.6194 29.5845 29.9727 29.5845C32.3721 29.5845 34.5935 30.91 35.7505 32.997C38.9572 33.5206 41.3236 36.273 41.3236 39.5714C41.3236 40.0822 41.266 40.5893 41.1519 41.0798Z" fill="white"/>
<path d="M29.6022 35.346C30.0448 35.346 30.4036 34.9872 30.4036 34.5446C30.4036 34.102 30.0448 33.7432 29.6022 33.7432C29.1596 33.7432 28.8008 34.102 28.8008 34.5446C28.8008 34.9872 29.1596 35.346 29.6022 35.346Z" fill="white"/>
<path d="M34.4049 38.5506C34.8475 38.5506 35.2063 38.1918 35.2063 37.7492C35.2063 37.3066 34.8475 36.9478 34.4049 36.9478C33.9623 36.9478 33.6035 37.3066 33.6035 37.7492C33.6035 38.1918 33.9623 38.5506 34.4049 38.5506Z" fill="white"/>
<path d="M26.9303 39.0838C27.3729 39.0838 27.7317 38.725 27.7317 38.2824C27.7317 37.8398 27.3729 37.481 26.9303 37.481C26.4877 37.481 26.1289 37.8398 26.1289 38.2824C26.1289 38.725 26.4877 39.0838 26.9303 39.0838Z" fill="white"/>
<path d="M56.7386 61.5175H52.7273L50.3706 58.4734L47.8874 61.5175H38.2812V54.6466C38.2812 49.5578 42.421 45.418 47.5099 45.418C52.5988 45.418 56.7386 49.5578 56.7386 54.6466V61.5175ZM53.5074 59.927H55.1481V54.6466C55.1481 50.4349 51.7217 47.0085 47.5099 47.0085C43.2982 47.0085 39.8718 50.4349 39.8718 54.6466V59.927H47.1324L50.4031 55.9162L53.5074 59.927Z" fill="white"/>
<path d="M39.0749 61.5174H20.0022L18.3066 40.104H43.5005L42.8553 48.2727L41.2664 48.1447L41.7782 41.6983H20.0289L21.4739 59.9285H39.0749V61.5174Z" fill="white"/>
<path d="M37.976 48.5232H23.8301V44.1562H25.4244V46.9289H36.387V44.1562H37.976V48.5232Z" fill="white"/>
<path d="M48.3038 13.5293H46.7148V46.2146H48.3038V13.5293Z" fill="white"/>
</g>
<defs>
<clipPath id="clip0_747_669">
<rect width="75" height="75" fill="white"/>
</clipPath>
</defs>
</svg>
