<svg width="75" height="75" viewBox="0 0 75 75" fill="none" xmlns="http://www.w3.org/2000/svg">
<g clip-path="url(#clip0_748_817)">
<path d="M37.0459 74.0918C57.5058 74.0918 74.0918 57.5058 74.0918 37.0459C74.0918 16.586 57.5058 0 37.0459 0C16.586 0 0 16.586 0 37.0459C0 57.5058 16.586 74.0918 37.0459 74.0918Z" fill="#0F2938"/>
<path d="M58.5994 31.4188H16.4475C14.8383 31.4188 13.5293 30.1097 13.5293 28.5011V19.9949C13.5293 18.3857 14.8383 17.0767 16.4475 17.0767H58.5999C60.2091 17.0767 61.5181 18.3857 61.5181 19.9949V28.5005C61.5176 30.1097 60.2086 31.4188 58.5994 31.4188ZM16.4475 18.1436C15.4264 18.1436 14.5957 18.9738 14.5957 19.9949V28.5005C14.5957 29.5216 15.4264 30.3524 16.4475 30.3524H58.5999C59.621 30.3524 60.4517 29.5216 60.4517 28.5005V19.9949C60.4517 18.9738 59.621 18.1431 58.5999 18.1431H16.4475V18.1436Z" fill="white"/>
<path d="M38.0803 22.5654H19.0508C18.7565 22.5654 18.5176 22.3266 18.5176 22.0322C18.5176 21.7379 18.7565 21.499 19.0508 21.499H38.0803C38.3751 21.499 38.6135 21.7379 38.6135 22.0322C38.6135 22.3266 38.3751 22.5654 38.0803 22.5654Z" fill="white"/>
<path d="M53.0933 27.6851C51.1977 27.6851 49.6562 26.1431 49.6562 24.2481C49.6562 22.3531 51.1983 20.8105 53.0933 20.8105C54.9883 20.8105 56.5308 22.3526 56.5308 24.2481C56.5308 26.1436 54.9888 27.6851 53.0933 27.6851ZM53.0933 21.877C51.7859 21.877 50.7227 22.9407 50.7227 24.2481C50.7227 25.5555 51.7859 26.6187 53.0933 26.6187C54.4007 26.6187 55.4644 25.555 55.4644 24.2481C55.4644 22.9402 54.4007 21.877 53.0933 21.877Z" fill="white"/>
<path d="M38.0803 26.9971H19.0508C18.7565 26.9971 18.5176 26.7582 18.5176 26.4639C18.5176 26.1695 18.7565 25.9307 19.0508 25.9307H38.0803C38.3751 25.9307 38.6135 26.1695 38.6135 26.4639C38.6135 26.7582 38.3751 26.9971 38.0803 26.9971Z" fill="white"/>
<path d="M58.5994 44.6946H16.4475C14.8383 44.6946 13.5293 43.3856 13.5293 41.7764V33.2708C13.5293 31.6616 14.8383 30.3525 16.4475 30.3525H58.5999C60.2091 30.3525 61.5181 31.6616 61.5181 33.2708V41.7764C61.5176 43.3856 60.2086 44.6946 58.5994 44.6946ZM16.4475 31.4189C15.4264 31.4189 14.5957 32.2497 14.5957 33.2708V41.7764C14.5957 42.7975 15.4264 43.6288 16.4475 43.6288H58.5999C59.621 43.6288 60.4517 42.7975 60.4517 41.7764V33.2708C60.4517 32.2497 59.621 31.4189 58.5999 31.4189H16.4475Z" fill="white"/>
<path d="M38.0803 35.8413H19.0508C18.7565 35.8413 18.5176 35.6024 18.5176 35.3081C18.5176 35.0138 18.7565 34.7749 19.0508 34.7749H38.0803C38.3751 34.7749 38.6135 35.0138 38.6135 35.3081C38.6135 35.6024 38.3751 35.8413 38.0803 35.8413Z" fill="white"/>
<path d="M53.0933 40.9605C51.1977 40.9605 49.6562 39.4185 49.6562 37.5235C49.6562 35.6285 51.1983 34.0859 53.0933 34.0859C54.9883 34.0859 56.5308 35.628 56.5308 37.5235C56.5308 39.419 54.9888 40.9605 53.0933 40.9605ZM53.0933 35.1523C51.7859 35.1523 50.7227 36.2161 50.7227 37.5235C50.7227 38.8309 51.7859 39.8941 53.0933 39.8941C54.4007 39.8941 55.4644 38.8309 55.4644 37.5235C55.4644 36.2161 54.4007 35.1523 53.0933 35.1523Z" fill="white"/>
<path d="M38.0803 40.272H19.0508C18.7565 40.272 18.5176 40.0336 18.5176 39.7388C18.5176 39.4439 18.7565 39.2056 19.0508 39.2056H38.0803C38.3751 39.2056 38.6135 39.4439 38.6135 39.7388C38.6135 40.0336 38.3751 40.272 38.0803 40.272Z" fill="white"/>
<path d="M58.5994 57.97H16.4475C14.8383 57.97 13.5293 56.661 13.5293 55.0513V46.5462C13.5293 44.9369 14.8383 43.6279 16.4475 43.6279H58.5999C60.2091 43.6279 61.5181 44.9369 61.5181 46.5462V55.0513C61.5176 56.661 60.2086 57.97 58.5994 57.97ZM16.4475 44.6943C15.4264 44.6943 14.5957 45.5251 14.5957 46.5462V55.0513C14.5957 56.0724 15.4264 56.9036 16.4475 56.9036H58.5999C59.621 56.9036 60.4517 56.0724 60.4517 55.0513V46.5462C60.4517 45.5251 59.621 44.6943 58.5999 44.6943H16.4475Z" fill="white"/>
<path d="M38.0803 49.1162H19.0508C18.7565 49.1162 18.5176 48.8779 18.5176 48.583C18.5176 48.2881 18.7565 48.0498 19.0508 48.0498H38.0803C38.3751 48.0498 38.6135 48.2881 38.6135 48.583C38.6135 48.8779 38.3751 49.1162 38.0803 49.1162Z" fill="white"/>
<path d="M53.0933 54.2364C51.1977 54.2364 49.6562 52.6943 49.6562 50.7993C49.6562 48.9043 51.1983 47.3623 53.0933 47.3623C54.9883 47.3623 56.5308 48.9043 56.5308 50.7993C56.5308 52.6943 54.9888 54.2364 53.0933 54.2364ZM53.0933 48.4282C51.7859 48.4282 50.7227 49.4914 50.7227 50.7988C50.7227 52.1062 51.7859 53.1694 53.0933 53.1694C54.4007 53.1694 55.4644 52.1062 55.4644 50.7988C55.4644 49.4914 54.4007 48.4282 53.0933 48.4282Z" fill="white"/>
<path d="M38.0803 53.5479H19.0508C18.7565 53.5479 18.5176 53.3095 18.5176 53.0146C18.5176 52.7198 18.7565 52.4814 19.0508 52.4814H38.0803C38.3751 52.4814 38.6135 52.7198 38.6135 53.0146C38.6135 53.3095 38.3751 53.5479 38.0803 53.5479Z" fill="white"/>
</g>
<defs>
<clipPath id="clip0_748_817">
<rect width="75" height="75" fill="white"/>
</clipPath>
</defs>
</svg>
