<svg width="75" height="75" viewBox="0 0 75 75" fill="none" xmlns="http://www.w3.org/2000/svg">
<g clip-path="url(#clip0_747_762)">
<path d="M37.0459 74.0918C57.5058 74.0918 74.0918 57.5058 74.0918 37.0459C74.0918 16.586 57.5058 0 37.0459 0C16.586 0 0 16.586 0 37.0459C0 57.5058 16.586 74.0918 37.0459 74.0918Z" fill="#0F2938"/>
<path d="M57.0786 49.763C56.7923 50.0983 56.2879 50.1383 55.9509 49.8504L54.0959 48.2631V52.8881C54.0959 53.3296 53.7376 53.6879 53.2961 53.6879C52.8546 53.6879 52.4963 53.3296 52.4963 52.8881V48.2631L50.6413 49.8499C50.3043 50.1383 49.8004 50.0983 49.5135 49.7624C49.2261 49.4265 49.2656 48.9216 49.601 48.6347L52.7757 45.918C52.7805 45.9138 52.7869 45.9127 52.7917 45.9084C52.8061 45.8967 52.8199 45.8844 52.8349 45.8738C52.8626 45.854 52.8924 45.838 52.9228 45.8221C52.941 45.8125 52.958 45.8013 52.9767 45.7927C52.9879 45.7879 53.0001 45.7842 53.0119 45.7799C53.0236 45.7751 53.0359 45.773 53.0476 45.7687C53.0631 45.7634 53.0785 45.7581 53.0945 45.7543C53.1068 45.7511 53.1191 45.7453 53.1313 45.7431C53.1841 45.7319 53.239 45.7261 53.295 45.7261H53.2955H53.2961C53.3521 45.7261 53.407 45.7325 53.4598 45.7431C53.4726 45.7458 53.4843 45.7511 53.4966 45.7543C53.5126 45.7586 53.528 45.7639 53.5435 45.7687C53.5557 45.7725 53.5675 45.7751 53.5792 45.7799C53.5909 45.7842 53.6032 45.7879 53.6144 45.7927C53.6331 45.8007 53.6501 45.8125 53.6677 45.8221C53.6981 45.838 53.728 45.854 53.7557 45.8738C53.7706 45.8844 53.7845 45.8967 53.7989 45.9084C53.8037 45.9127 53.8101 45.9138 53.8149 45.9175L56.9901 48.6342C57.3266 48.9221 57.366 49.427 57.0786 49.763Z" fill="white"/>
<path d="M25.219 43.6025C24.7818 43.6025 24.4277 43.9566 24.4277 44.3938C24.4277 44.831 24.7818 45.1851 25.219 45.1851H37.3057C37.7423 45.1851 38.0969 44.831 38.0969 44.3938C38.0969 43.9566 37.7429 43.6025 37.3057 43.6025H25.219Z" fill="white"/>
<path d="M25.219 29.3643H50.4363C50.873 29.3643 51.2276 29.0102 51.2276 28.573C51.2276 28.1358 50.8735 27.7817 50.4363 27.7817H25.219C24.7818 27.7817 24.4277 28.1358 24.4277 28.573C24.4277 29.0102 24.7823 29.3643 25.219 29.3643Z" fill="white"/>
<path d="M51.2276 39.1204C51.2276 38.6837 50.8735 38.3291 50.4363 38.3291H25.219C24.7818 38.3291 24.4277 38.6831 24.4277 39.1204C24.4277 39.5576 24.7818 39.9116 25.219 39.9116H50.4363C50.8735 39.9111 51.2276 39.5571 51.2276 39.1204Z" fill="white"/>
<path d="M25.219 24.0908H37.3057C37.7423 24.0908 38.0969 23.7368 38.0969 23.2996C38.0969 22.8623 37.7429 22.5083 37.3057 22.5083H25.219C24.7818 22.5083 24.4277 22.8623 24.4277 23.2996C24.4283 23.7368 24.7823 24.0908 25.219 24.0908Z" fill="white"/>
<path d="M53.8226 58.1467V59.2296C53.8226 59.6183 53.5059 59.935 53.1166 59.935H21.9296C21.5403 59.935 21.2236 59.6183 21.2236 59.2296V15.8173C21.2236 15.428 21.5403 15.1113 21.9296 15.1113H46.3775V19.9917C46.3775 21.2533 47.4039 22.2797 48.6649 22.2797H53.8226V41.2665C54.367 41.3166 54.8949 41.4206 55.4046 41.5683V21.4954C55.4051 21.4506 55.4014 21.4068 55.395 21.3631C55.395 21.3631 55.3945 21.3631 55.3945 21.3626C55.3945 21.3621 55.3945 21.3621 55.3945 21.361C55.3945 21.3605 55.3939 21.3599 55.3939 21.3594C55.3902 21.337 55.3859 21.3157 55.3801 21.2938C55.3795 21.2933 55.3811 21.2922 55.3795 21.2922C55.3795 21.2911 55.3795 21.2906 55.379 21.2901C55.3438 21.1552 55.2729 21.0293 55.17 20.9275H55.1695L55.1689 20.927C55.1652 20.9264 55.1679 20.9264 55.1673 20.9259C55.1689 20.9232 55.1663 20.9248 55.1663 20.9248C55.1652 20.9243 55.1668 20.9243 55.1647 20.9238C55.1652 20.9232 55.1636 20.9232 55.1636 20.9227C55.1631 20.9222 55.1625 20.9222 55.162 20.9216L47.7169 13.7506C47.7163 13.75 47.7158 13.7495 47.7153 13.749C47.7147 13.7484 47.7142 13.7479 47.7137 13.7474C47.6065 13.6461 47.4769 13.5784 47.3388 13.548C47.3186 13.5437 47.2988 13.54 47.2786 13.5373C47.2781 13.5373 47.2781 13.5373 47.2781 13.5373C47.277 13.5368 47.2765 13.5373 47.2754 13.5368C47.2743 13.5368 47.2733 13.5362 47.2733 13.5368C47.2727 13.5368 47.2717 13.5368 47.2706 13.5368C47.2695 13.5368 47.269 13.5362 47.2679 13.5368C47.2679 13.5368 47.2674 13.5368 47.2653 13.5362C47.2311 13.5309 47.1906 13.5309 47.1629 13.5293H21.9296C20.668 13.5293 19.6416 14.5557 19.6416 15.8173V59.2301C19.6416 60.4912 20.668 61.5176 21.9296 61.5176H53.1166C54.3782 61.5176 55.4046 60.4912 55.4046 59.2301V57.8449C54.8949 57.9931 54.367 58.0965 53.8226 58.1467ZM47.9595 16.1798L52.6517 20.6977H48.6649C48.2762 20.6977 47.9595 20.381 47.9595 19.9917V16.1798Z" fill="white"/>
<path d="M25.219 34.6377H50.4363C50.873 34.6377 51.2276 34.2837 51.2276 33.8464C51.2276 33.4098 50.8735 33.0552 50.4363 33.0552H25.219C24.7818 33.0552 24.4277 33.4092 24.4277 33.8464C24.4283 34.2837 24.7823 34.6377 25.219 34.6377Z" fill="white"/>
<path d="M53.0367 42.8262C56.8304 42.8262 59.9172 45.9129 59.9172 49.7066C59.9172 53.5004 56.8304 56.5871 53.0367 56.5871C49.243 56.5871 46.1562 53.5004 46.1562 49.7066C46.1568 45.9129 49.243 42.8262 53.0367 42.8262ZM53.0367 41.2266C48.3536 41.2266 44.5566 45.023 44.5566 49.7066C44.5566 54.3903 48.353 58.1867 53.0367 58.1867C57.7204 58.1867 61.5168 54.3897 61.5168 49.7066C61.5168 45.0235 57.7204 41.2266 53.0367 41.2266Z" fill="white"/>
</g>
<defs>
<clipPath id="clip0_747_762">
<rect width="75" height="75" fill="white"/>
</clipPath>
</defs>
</svg>
