<svg width="75" height="75" viewBox="0 0 75 75" fill="none" xmlns="http://www.w3.org/2000/svg">
<g clip-path="url(#clip0_747_689)">
<path d="M37.0459 74.0918C57.5058 74.0918 74.0918 57.5058 74.0918 37.0459C74.0918 16.586 57.5058 0 37.0459 0C16.586 0 0 16.586 0 37.0459C0 57.5058 16.586 74.0918 37.0459 74.0918Z" fill="#0F2938"/>
<path d="M41.377 51.442H33.668V43.7329H41.3765V51.442H41.377ZM35.2676 49.8423H39.7769V45.3331H35.2676V49.8423Z" fill="white"/>
<path d="M52.5381 51.442H44.8301V43.7329H52.5381V51.442ZM46.4297 49.8423H50.9385V45.3331H46.4297V49.8423Z" fill="white"/>
<path d="M30.2183 51.442H22.5098V43.7329H30.2183V51.442ZM24.1094 49.8423H28.6187V45.3331H24.1094V49.8423Z" fill="white"/>
<path d="M58.1323 59.0225V30.567L55.8251 31.8147L54.667 14.4243H47.9486L46.4541 36.8823L44.9259 37.7088V30.567L31.7201 37.7088V30.567L16.9146 38.5736V59.023H13.5293V60.6226H61.5176V59.023H58.1323V59.0225ZM53.1708 16.0239L53.3398 18.5604H49.2774L49.4459 16.0239H53.1708ZM49.1702 20.16H53.4459L54.2772 32.6513L48.1177 35.9823L49.1702 20.16ZM18.5142 39.5275L30.121 33.2507V40.3924L43.3274 33.2507V40.3924L56.5337 33.2507V59.0225H18.5142V39.5275Z" fill="white"/>
</g>
<defs>
<clipPath id="clip0_747_689">
<rect width="75" height="75" fill="white"/>
</clipPath>
</defs>
</svg>
