<svg width="75" height="75" viewBox="0 0 75 75" fill="none" xmlns="http://www.w3.org/2000/svg">
<g clip-path="url(#clip0_747_626)">
<path d="M37.0459 74.0918C57.5058 74.0918 74.0918 57.5058 74.0918 37.0459C74.0918 16.586 57.5058 0 37.0459 0C16.586 0 0 16.586 0 37.0459C0 57.5058 16.586 74.0918 37.0459 74.0918Z" fill="#0F2938"/>
<path d="M37.5238 61.5176C33.4277 61.5176 30.0957 58.1851 30.0957 54.089C30.0957 51.4406 31.4948 49.015 33.7689 47.682V17.2841C33.7689 15.2137 35.4533 13.5293 37.5238 13.5293C39.5947 13.5293 41.2791 15.2137 41.2791 17.2841V47.682C43.5532 49.015 44.9523 51.4406 44.9523 54.089C44.9523 58.1851 41.6198 61.5176 37.5238 61.5176ZM37.5238 14.5957C36.0415 14.5957 34.8353 15.8018 34.8353 17.2841V48.316L34.5517 48.4664C32.461 49.5738 31.1621 51.7285 31.1621 54.089C31.1621 57.5969 34.0158 60.4512 37.5238 60.4512C41.0317 60.4512 43.8859 57.5969 43.8859 54.089C43.8859 51.7285 42.5871 49.5738 40.4969 48.4664L40.2132 48.316V17.2841C40.2127 15.8018 39.0061 14.5957 37.5238 14.5957Z" fill="white"/>
<path d="M38.0572 49.831V36.2295C38.0572 35.9352 37.8183 35.6963 37.524 35.6963C37.2297 35.6963 36.9908 35.9352 36.9908 36.2295V49.8304C34.8734 50.0944 33.2285 51.9014 33.2285 54.0891C33.2285 56.4576 35.1555 58.3846 37.524 58.3846C39.8925 58.3846 41.8195 56.4582 41.8195 54.0891C41.8195 51.9014 40.1746 50.0944 38.0572 49.831Z" fill="white"/>
<path d="M37.5243 30.9634H34.3027C34.0084 30.9634 33.7695 30.7245 33.7695 30.4302C33.7695 30.1358 34.0084 29.897 34.3027 29.897H37.5243C37.8187 29.897 38.0576 30.1358 38.0576 30.4302C38.0576 30.7245 37.8187 30.9634 37.5243 30.9634Z" fill="white"/>
<path d="M35.9135 25.9473H34.3027C34.0084 25.9473 33.7695 25.7084 33.7695 25.4141C33.7695 25.1197 34.0084 24.8809 34.3027 24.8809H35.9135C36.2079 24.8809 36.4467 25.1197 36.4467 25.4141C36.4467 25.7084 36.2079 25.9473 35.9135 25.9473Z" fill="white"/>
<path d="M37.5243 20.9312H34.3027C34.0084 20.9312 33.7695 20.6923 33.7695 20.3979C33.7695 20.1036 34.0084 19.8647 34.3027 19.8647H37.5243C37.8187 19.8647 38.0576 20.1036 38.0576 20.3979C38.0576 20.6923 37.8187 20.9312 37.5243 20.9312Z" fill="white"/>
</g>
<defs>
<clipPath id="clip0_747_626">
<rect width="75" height="75" fill="white"/>
</clipPath>
</defs>
</svg>
