<svg width="75" height="75" viewBox="0 0 75 75" fill="none" xmlns="http://www.w3.org/2000/svg">
<g clip-path="url(#clip0_749_846)">
<path d="M37.0459 74.0918C57.5058 74.0918 74.0918 57.5058 74.0918 37.0459C74.0918 16.586 57.5058 0 37.0459 0C16.586 0 0 16.586 0 37.0459C0 57.5058 16.586 74.0918 37.0459 74.0918Z" fill="#0F2938"/>
<path d="M41.0545 28.3854C40.91 28.3854 40.766 28.3273 40.661 28.2116C40.4626 27.9941 40.4776 27.6571 40.6946 27.4582C42.6898 25.6352 45.1042 24.3011 47.8694 23.4922C48.1525 23.4096 48.4479 23.5722 48.5305 23.8543C48.6132 24.1369 48.4511 24.4328 48.1679 24.516C45.5601 25.2785 43.2881 26.5331 41.4139 28.2452C41.3115 28.3396 41.183 28.3854 41.0545 28.3854Z" fill="white"/>
<path d="M41.0555 33.7391C40.911 33.7391 40.767 33.681 40.662 33.5653C40.4636 33.3477 40.4785 33.0107 40.6955 32.8119C42.6908 30.9899 45.1046 29.6558 47.8693 28.847C48.1524 28.7638 48.4478 28.9264 48.5304 29.209C48.6131 29.4916 48.451 29.7875 48.1679 29.8707C45.5605 30.6332 43.2885 31.8873 41.4148 33.5989C41.3125 33.6932 41.184 33.7391 41.0555 33.7391Z" fill="white"/>
<path d="M41.0555 39.0942C40.911 39.0942 40.767 39.0361 40.662 38.9209C40.4636 38.7033 40.4785 38.3658 40.6955 38.1675C42.6913 36.345 45.1051 35.0114 47.8693 34.2031C48.1524 34.1194 48.4478 34.2826 48.5304 34.5652C48.6131 34.8478 48.451 35.1437 48.1679 35.2269C45.561 35.9888 43.289 37.2429 41.4148 38.955C41.3125 39.0478 41.184 39.0942 41.0555 39.0942Z" fill="white"/>
<path d="M59.4567 26.5217H57.7793V25.8872C57.7793 25.6413 57.6113 25.427 57.3714 25.3689C55.5628 24.9301 53.7312 24.6128 51.9173 24.4128V16.8755C51.9173 16.7219 51.8511 16.5753 51.7349 16.4745C51.6197 16.3732 51.4683 16.3279 51.3131 16.3471C45.0336 17.1863 40.3132 20.1957 37.267 25.282C30.7635 23.765 24.1742 23.7911 17.6739 25.3689C17.435 25.427 17.2665 25.6408 17.2665 25.8872V26.5217H15.5907C14.4539 26.5217 13.5293 27.4468 13.5293 28.583V56.6428C13.5293 57.7791 14.4539 58.7037 15.5907 58.7037H59.4567C60.593 58.7037 61.5176 57.7791 61.5176 56.6428V28.583C61.5176 27.4468 60.593 26.5217 59.4567 26.5217ZM56.7129 26.3084V54.1315C50.7165 52.7745 44.6481 52.735 38.6464 54.0062C41.5262 49.659 45.827 47.0734 51.4555 46.3211C51.72 46.2859 51.9178 46.0598 51.9178 45.7927V25.4857C53.5121 25.6659 55.1197 25.9383 56.7129 26.3084ZM50.8514 17.4929V45.3309C45.3173 46.175 41.0229 48.7408 38.0566 52.9701V26.0301C40.8266 21.2771 45.129 18.4074 50.8514 17.4929ZM18.334 26.3084C24.5261 24.8693 30.7981 24.8693 36.9902 26.3084V54.1315C33.8934 53.4308 30.7779 53.0794 27.6618 53.0794C24.5458 53.0794 21.4303 53.4303 18.3335 54.1315V26.3084H18.334ZM14.5957 56.6428V28.583C14.5957 28.0344 15.042 27.5881 15.5907 27.5881H17.2676V54.8044C17.2676 54.9681 17.3428 55.1227 17.4713 55.2235C17.5998 55.3237 17.7672 55.36 17.9266 55.3226C24.2509 53.7881 30.6627 53.7603 36.9902 55.2299V57.6373H15.5907C15.042 57.6378 14.5957 57.1915 14.5957 56.6428ZM60.4512 56.6428C60.4512 57.191 60.0049 57.6373 59.4567 57.6373H38.0566V55.2299C44.3842 53.7603 50.7949 53.7875 57.1208 55.3226C57.1618 55.3333 57.204 55.3376 57.2461 55.3376C57.3645 55.3376 57.4807 55.2981 57.5756 55.2235C57.7041 55.1227 57.7793 54.9681 57.7793 54.8044V27.5881H59.4567C60.0049 27.5881 60.4512 28.0344 60.4512 28.583V56.6428Z" fill="white"/>
<path d="M41.0555 44.4493C40.911 44.4493 40.767 44.3911 40.662 44.276C40.4636 44.0584 40.4785 43.7209 40.6955 43.5226C42.6908 41.7001 45.1041 40.366 47.8687 39.5582C48.1519 39.4755 48.4473 39.6376 48.5299 39.9208C48.6125 40.2039 48.4505 40.4993 48.1673 40.5819C45.5605 41.3439 43.2885 42.5974 41.4148 44.3096C41.3125 44.4029 41.184 44.4493 41.0555 44.4493Z" fill="white"/>
<path d="M21.1993 32.1633C20.9418 32.1633 20.7152 31.9761 20.6736 31.7138C20.6277 31.4232 20.8256 31.1496 21.1167 31.1032C25.4356 30.416 29.8159 30.4122 34.1359 31.0921C34.427 31.1379 34.6254 31.4109 34.5801 31.7015C34.5342 31.9926 34.2623 32.191 33.9706 32.1457C29.7615 31.484 25.4938 31.4877 21.2846 32.1569C21.2553 32.1611 21.2271 32.1633 21.1993 32.1633Z" fill="white"/>
<path d="M21.1993 37.5183C20.9418 37.5183 20.7152 37.3312 20.6736 37.0688C20.6277 36.7782 20.8256 36.5047 21.1167 36.4583C25.4367 35.7716 29.8164 35.7678 34.1359 36.4471C34.427 36.493 34.6254 36.766 34.5801 37.0566C34.5342 37.3477 34.2623 37.5477 33.9706 37.5007C29.7615 36.839 25.4938 36.8422 21.2846 37.5119C21.2553 37.5162 21.2271 37.5183 21.1993 37.5183Z" fill="white"/>
<path d="M21.1993 42.8733C20.9418 42.8733 20.7152 42.6862 20.6736 42.4238C20.6277 42.1327 20.8256 41.8592 21.1167 41.8133C25.4378 41.1271 29.8186 41.1223 34.1359 41.8021C34.427 41.848 34.6254 42.1215 34.5801 42.4121C34.5342 42.7032 34.2596 42.9 33.9706 42.8562C29.7631 42.1935 25.4954 42.1977 21.2846 42.8669C21.2559 42.8712 21.2276 42.8733 21.1993 42.8733Z" fill="white"/>
<path d="M21.1999 48.2286C20.9423 48.2286 20.7157 48.0414 20.6736 47.7791C20.6277 47.488 20.8256 47.215 21.1167 47.1686C25.4404 46.4813 29.8255 46.4786 34.1508 47.159C34.4414 47.2054 34.6403 47.4784 34.5945 47.7689C34.5491 48.0601 34.2756 48.2568 33.9845 48.2131C29.7695 47.5487 25.4959 47.5514 21.2841 48.2216C21.2559 48.2264 21.2276 48.2286 21.1999 48.2286Z" fill="white"/>
</g>
<defs>
<clipPath id="clip0_749_846">
<rect width="75" height="75" fill="white"/>
</clipPath>
</defs>
</svg>
