<svg width="75" height="75" viewBox="0 0 75 75" fill="none" xmlns="http://www.w3.org/2000/svg">
<g clip-path="url(#clip0_747_646)">
<path d="M37.0459 74.0918C57.5058 74.0918 74.0918 57.5058 74.0918 37.0459C74.0918 16.586 57.5058 0 37.0459 0C16.586 0 0 16.586 0 37.0459C0 57.5058 16.586 74.0918 37.0459 74.0918Z" fill="#0F2938"/>
<path d="M55.4689 47.9216H48.6972V38.7302C48.6972 33.6573 45.3461 29.2579 40.4955 27.8881V25.7537H42.0034C42.2983 25.7537 42.5366 25.5148 42.5366 25.2205V20.7048C42.5366 20.4104 42.2983 20.1716 42.0034 20.1716H40.4955V15.562C40.4955 15.2677 40.2572 15.0288 39.9623 15.0288H34.8201C34.5258 15.0288 34.2869 15.2677 34.2869 15.562V17.2635H29.8368C27.1729 17.2635 25.006 19.4304 25.006 22.0943C25.006 22.3886 25.2448 22.6275 25.5392 22.6275C25.8335 22.6275 26.0724 22.3886 26.0724 22.0943C26.0724 20.0185 27.761 18.3299 29.8368 18.3299H34.2869V20.171H32.8302C32.5359 20.171 32.297 20.4099 32.297 20.7042V25.2199C32.297 25.5142 32.5359 25.7531 32.8302 25.7531H34.3381V27.8875C29.5595 29.2376 26.2425 33.5299 26.1454 38.5073C25.4549 38.0232 24.6796 37.6425 23.8388 37.3913V36.1916H24.725C25.0193 36.1916 25.2582 35.9528 25.2582 35.6584V32.5184C25.2582 32.2241 25.0193 31.9852 24.725 31.9852H18.3468C18.0525 31.9852 17.8136 32.2241 17.8136 32.5184V35.6584C17.8136 35.9528 18.0525 36.1916 18.3468 36.1916H19.233V37.3913C15.8535 38.4012 13.5293 41.4933 13.5293 45.0529V59.4846C13.5293 59.7795 13.7682 60.0178 14.0625 60.0178H29.0092H48.164H55.4689C58.8041 60.0184 61.5176 57.3054 61.5176 53.9702C61.5176 50.635 58.8041 47.9216 55.4689 47.9216ZM35.3538 16.0952H39.4296V20.171H35.3538V16.0952ZM33.3639 21.2374H34.8206H39.9628H41.4707V24.6867H39.9628H34.8718H33.3639V21.2374ZM34.9977 28.8169C35.2365 28.7588 35.405 28.545 35.405 28.2986V25.7531H39.4296V28.2986C39.4296 28.5444 39.5976 28.7588 39.837 28.8169C44.4258 29.9334 47.6314 34.0103 47.6314 38.7302V58.952H29.5425V45.0529C29.5425 42.8663 28.6627 40.8582 27.2028 39.3989V38.7297C27.2028 34.0103 30.4078 29.9334 34.9977 28.8169ZM18.88 33.0511H24.1918V35.1247H23.3056H19.7656H18.8795V33.0511H18.88ZM14.5957 45.0529C14.5957 41.8457 16.7733 39.0757 19.892 38.317C20.1309 38.2589 20.2994 38.0451 20.2994 37.7987V36.1911H22.7729V37.7987C22.7729 38.0445 22.9409 38.2583 23.1803 38.317C24.3736 38.6076 25.4277 39.1941 26.2766 39.9859C26.2899 40.0008 26.3038 40.0147 26.3192 40.028C27.6618 41.3019 28.4766 43.0945 28.4766 45.0529V58.9514H14.5957V45.0529ZM55.4689 58.952H48.6972V48.988H55.4689C58.216 48.988 60.4512 51.2226 60.4512 53.9702C60.4512 56.7168 58.2165 58.952 55.4689 58.952Z" fill="white"/>
<path d="M33.8008 54.5032H40.9841C41.279 54.5032 41.5173 54.2649 41.5173 53.97V40.5962C41.5173 40.3013 41.279 40.063 40.9841 40.063H33.8008C33.5065 40.063 33.2676 40.3013 33.2676 40.5962V53.97C33.2676 54.2643 33.5059 54.5032 33.8008 54.5032ZM34.334 41.1294H40.4509V53.4368H34.334V41.1294Z" fill="white"/>
<path d="M21.5661 46.3877C19.3592 46.3877 17.5645 48.1825 17.5645 50.3894C17.5645 52.5963 19.3597 54.3911 21.5661 54.3911C23.7725 54.3911 25.5678 52.5963 25.5678 50.3894C25.5678 48.1825 23.7725 46.3877 21.5661 46.3877ZM21.5661 53.3247C19.9473 53.3247 18.6309 52.0077 18.6309 50.3894C18.6309 48.7711 19.9479 47.4541 21.5661 47.4541C23.1844 47.4541 24.5014 48.7711 24.5014 50.3894C24.5014 52.0077 23.1844 53.3247 21.5661 53.3247Z" fill="white"/>
<path d="M58.6133 45.9904C60.2151 45.9904 61.5177 44.6877 61.5177 43.086C61.5177 41.4843 60.2151 40.1816 58.6133 40.1816C57.0116 40.1816 55.709 41.4843 55.709 43.086C55.709 44.6877 57.0116 45.9904 58.6133 45.9904ZM58.6133 41.2475C59.6264 41.2475 60.4513 42.0724 60.4513 43.0855C60.4513 44.0986 59.6264 44.9234 58.6133 44.9234C57.6003 44.9234 56.7754 44.0986 56.7754 43.0855C56.7754 42.0724 57.5997 41.2475 58.6133 41.2475Z" fill="white"/>
<path d="M52.8901 38.6679C54.085 38.6679 55.0576 37.6954 55.0576 36.5005C55.0576 35.3056 54.085 34.333 52.8901 34.333C51.6952 34.333 50.7227 35.3056 50.7227 36.5005C50.7227 37.6954 51.6952 38.6679 52.8901 38.6679ZM52.8901 35.3989C53.4974 35.3989 53.9912 35.8926 53.9912 36.4999C53.9912 37.1073 53.4969 37.601 52.8901 37.601C52.2833 37.601 51.7891 37.1067 51.7891 36.4999C51.7891 35.8932 52.2833 35.3989 52.8901 35.3989Z" fill="white"/>
<path d="M58.8417 32.8258C59.3658 32.8258 59.7903 32.4009 59.7903 31.8773C59.7903 31.3531 59.3653 30.9287 58.8417 30.9287C58.3181 30.9287 57.8926 31.3531 57.8926 31.8773C57.8926 32.4009 58.3175 32.8258 58.8417 32.8258Z" fill="white"/>
<path d="M54.8047 51.3428C54.5098 51.3428 54.2715 51.5811 54.2715 51.876C54.2715 52.1708 54.5098 52.4092 54.8047 52.4092C56.0316 52.4092 57.0292 53.4068 57.0292 54.6337C57.0292 54.9286 57.2676 55.1669 57.5624 55.1669C57.8573 55.1669 58.0956 54.9286 58.0956 54.6337C58.0956 52.8192 56.6192 51.3428 54.8047 51.3428Z" fill="white"/>
</g>
<defs>
<clipPath id="clip0_747_646">
<rect width="75" height="75" fill="white"/>
</clipPath>
</defs>
</svg>
