<svg width="75" height="75" viewBox="0 0 75 75" fill="none" xmlns="http://www.w3.org/2000/svg">
<g clip-path="url(#clip0_747_713)">
<path d="M37.0459 74.0918C57.5058 74.0918 74.0918 57.5058 74.0918 37.0459C74.0918 16.586 57.5058 0 37.0459 0C16.586 0 0 16.586 0 37.0459C0 57.5058 16.586 74.0918 37.0459 74.0918Z" fill="#0F2938"/>
<path d="M50.608 61.5176H24.4374C22.7445 61.5176 21.3672 60.1404 21.3672 58.4469V23.826C21.3672 22.1331 22.7445 20.7559 24.4374 20.7559H29.1589C29.7475 20.7559 30.2253 21.2336 30.2253 21.8223C30.2253 22.4109 29.7475 22.8887 29.1589 22.8887H24.4374C23.9202 22.8887 23.5 23.3094 23.5 23.826V58.4469C23.5 58.9641 23.9207 59.3848 24.4374 59.3848H50.608C51.1253 59.3848 51.546 58.9641 51.546 58.4469V23.826C51.546 23.3088 51.1253 22.8887 50.608 22.8887H45.8865C45.2979 22.8887 44.8201 22.4109 44.8201 21.8223C44.8201 21.2336 45.2979 20.7559 45.8865 20.7559H50.608C52.3015 20.7559 53.6788 22.1331 53.6788 23.826V58.4469C53.6788 60.1404 52.3015 61.5176 50.608 61.5176Z" fill="white"/>
<path d="M45.8859 24.7202H29.1582C28.5695 24.7202 28.0918 24.2424 28.0918 23.6538V21.8835C28.0918 18.9392 30.3606 16.5147 33.242 16.2668C34.0029 14.6218 35.6633 13.5293 37.522 13.5293C39.3802 13.5293 41.0412 14.6218 41.8015 16.2668C44.6829 16.5147 46.9517 18.9392 46.9517 21.8835V23.6538C46.9523 24.2429 46.4745 24.7202 45.8859 24.7202ZM30.2246 22.5874H44.8194V21.8835C44.8194 19.9507 43.247 18.3788 41.3147 18.3788H41.0497C40.5661 18.3788 40.1427 18.053 40.0185 17.5854C39.7183 16.4528 38.6919 15.6621 37.522 15.6621C36.3522 15.6621 35.3252 16.4528 35.025 17.5854C34.9013 18.053 34.478 18.3788 33.9944 18.3788H33.7294C31.7965 18.3788 30.2246 19.9512 30.2246 21.8835V22.5874Z" fill="white"/>
<path d="M38.7733 20.605H36.2715C35.6828 20.605 35.2051 20.1272 35.2051 19.5386C35.2051 18.9499 35.6828 18.4722 36.2715 18.4722H38.7733C39.3619 18.4722 39.8397 18.9499 39.8397 19.5386C39.8397 20.1272 39.3619 20.605 38.7733 20.605Z" fill="white"/>
<path d="M28.5537 35.6988C28.2135 35.6988 27.8931 35.5367 27.6921 35.2605L26.117 33.0989C25.7699 32.6227 25.8744 31.9557 26.3505 31.6091C26.8267 31.262 27.4937 31.3665 27.8403 31.8426L28.4673 32.7032L30.0019 30.146C30.3048 29.641 30.9601 29.4768 31.465 29.7802C31.97 30.0831 32.1337 30.7384 31.8308 31.2433L29.4682 35.181C29.2842 35.4876 28.9584 35.6817 28.6017 35.6977C28.5857 35.6982 28.5697 35.6988 28.5537 35.6988Z" fill="white"/>
<path d="M47.5658 31.7607H34.8516C34.2629 31.7607 33.7852 31.283 33.7852 30.6943C33.7852 30.1057 34.2629 29.6279 34.8516 29.6279H47.5658C48.1544 29.6279 48.6322 30.1057 48.6322 30.6943C48.6322 31.283 48.1544 31.7607 47.5658 31.7607Z" fill="white"/>
<path d="M41.5113 35.6987H34.8516C34.2629 35.6987 33.7852 35.221 33.7852 34.6323C33.7852 34.0437 34.2629 33.5659 34.8516 33.5659H41.5118C42.1005 33.5659 42.5782 34.0437 42.5782 34.6323C42.5782 35.221 42.1005 35.6987 41.5113 35.6987Z" fill="white"/>
<path d="M28.5537 45.0782C28.2135 45.0782 27.8931 44.9162 27.6921 44.64L26.117 42.4783C25.7699 42.0022 25.8744 41.3352 26.3505 40.9886C26.8267 40.6425 27.4937 40.7465 27.8403 41.2221L28.4673 42.0822L30.0019 39.5244C30.3048 39.0195 30.959 38.8552 31.465 39.1586C31.97 39.4615 32.1337 40.1168 31.8308 40.6217L29.4682 44.56C29.2842 44.8666 28.9584 45.0601 28.6017 45.0766C28.5857 45.0777 28.5697 45.0782 28.5537 45.0782Z" fill="white"/>
<path d="M47.5658 41.1401H34.8516C34.2629 41.1401 33.7852 40.6624 33.7852 40.0737C33.7852 39.4851 34.2629 39.0073 34.8516 39.0073H47.5658C48.1544 39.0073 48.6322 39.4851 48.6322 40.0737C48.6322 40.6624 48.1544 41.1401 47.5658 41.1401Z" fill="white"/>
<path d="M41.5113 45.0786H34.8516C34.2629 45.0786 33.7852 44.6009 33.7852 44.0122C33.7852 43.4236 34.2629 42.9458 34.8516 42.9458H41.5118C42.1005 42.9458 42.5782 43.4236 42.5782 44.0122C42.5782 44.6009 42.1005 45.0786 41.5113 45.0786Z" fill="white"/>
<path d="M28.5537 54.4579C28.2135 54.4579 27.8931 54.2958 27.6921 54.0196L26.117 51.858C25.7699 51.3818 25.8744 50.7148 26.3505 50.3682C26.8267 50.0222 27.4937 50.1262 27.8403 50.6018L28.4673 51.4618L30.0019 48.9041C30.3048 48.3991 30.959 48.2354 31.465 48.5383C31.97 48.8411 32.1337 49.4964 31.8308 50.0014L29.4682 53.9396C29.2842 54.2462 28.9584 54.4398 28.6017 54.4563C28.5857 54.4574 28.5692 54.4579 28.5537 54.4579Z" fill="white"/>
<path d="M47.5658 50.5195H34.8516C34.2629 50.5195 33.7852 50.0418 33.7852 49.4531C33.7852 48.8645 34.2629 48.3867 34.8516 48.3867H47.5658C48.1544 48.3867 48.6322 48.8645 48.6322 49.4531C48.6322 50.0418 48.1544 50.5195 47.5658 50.5195Z" fill="white"/>
<path d="M41.5113 54.458H34.8516C34.2629 54.458 33.7852 53.9803 33.7852 53.3916C33.7852 52.8029 34.2629 52.3252 34.8516 52.3252H41.5118C42.1005 52.3252 42.5782 52.8029 42.5782 53.3916C42.5782 53.9803 42.1005 54.458 41.5113 54.458Z" fill="white"/>
</g>
<defs>
<clipPath id="clip0_747_713">
<rect width="75" height="75" fill="white"/>
</clipPath>
</defs>
</svg>
