<svg width="75" height="75" viewBox="0 0 75 75" fill="none" xmlns="http://www.w3.org/2000/svg">
<g clip-path="url(#clip0_748_788)">
<path d="M37.0459 74.0918C57.5058 74.0918 74.0918 57.5058 74.0918 37.0459C74.0918 16.586 57.5058 0 37.0459 0C16.586 0 0 16.586 0 37.0459C0 57.5058 16.586 74.0918 37.0459 74.0918Z" fill="#0F2938"/>
<path d="M54.9196 13.5293H20.1275C19.2163 13.5293 18.4746 14.271 18.4746 15.1822V59.8647C18.4746 60.7759 19.2163 61.5176 20.1275 61.5176H54.9196C55.8308 61.5176 56.572 60.7759 56.572 59.8647V15.1822C56.572 14.271 55.8308 13.5293 54.9196 13.5293ZM55.5056 59.8647C55.5056 60.1878 55.2427 60.4512 54.9196 60.4512H20.1275C19.8044 60.4512 19.541 60.1883 19.541 59.8647V15.1822C19.541 14.8591 19.8039 14.5957 20.1275 14.5957H54.9196C55.2422 14.5957 55.5056 14.8586 55.5056 15.1822V59.8647Z" fill="white"/>
<path d="M51.7731 17.7949H23.2734C22.9791 17.7949 22.7402 18.0338 22.7402 18.3281V55.6523C22.7402 55.9472 22.9791 56.1855 23.2734 56.1855H32.9292H32.9329H51.7726C52.0675 56.1855 52.3058 55.9472 52.3058 55.6523V36.8127V36.8089V18.3281C52.3063 18.0338 52.0675 17.7949 51.7731 17.7949ZM23.8066 55.1191V18.8613H51.2399V36.8084C51.2399 41.0244 47.8093 44.4551 43.5933 44.4551C42.5951 44.4551 41.6247 44.2658 40.7081 43.892C40.5082 43.811 40.2815 43.8568 40.1296 44.0088C39.9776 44.1602 39.9318 44.3884 40.0128 44.5873C40.3861 45.5034 40.5759 46.4738 40.5759 47.4725C40.5759 51.6885 37.1458 55.1191 32.9297 55.1191H23.8066ZM41.3512 45.2304C42.0784 45.4239 42.8287 45.5215 43.5933 45.5215C46.1713 45.5215 48.4913 44.3964 50.0877 42.6113C48.1548 47.578 43.9388 52.1535 38.5646 54.113C40.4463 52.5139 41.6423 50.13 41.6423 47.4725C41.6423 46.7084 41.5447 45.9571 41.3512 45.2304ZM51.2399 55.1191H38.8888C44.7274 52.9906 49.2719 47.9476 51.2394 42.5307V55.1191H51.2399Z" fill="white"/>
<path d="M39.0707 57.7925H37.5762C37.2818 57.7925 37.043 58.0308 37.043 58.3257C37.043 58.6205 37.2818 58.8589 37.5762 58.8589H39.0707C39.3656 58.8589 39.6039 58.6205 39.6039 58.3257C39.6039 58.0308 39.3656 57.7925 39.0707 57.7925Z" fill="white"/>
<path d="M28.6055 24.1934H46.4411C46.736 24.1934 46.9743 23.9545 46.9743 23.6602C46.9743 23.3658 46.736 23.127 46.4411 23.127H28.6055C28.3111 23.127 28.0723 23.3658 28.0723 23.6602C28.0723 23.9545 28.3111 24.1934 28.6055 24.1934Z" fill="white"/>
<path d="M28.6055 35.0708H46.4411C46.736 35.0708 46.9743 34.8319 46.9743 34.5376C46.9743 34.2433 46.736 34.0044 46.4411 34.0044H28.6055C28.3111 34.0044 28.0723 34.2433 28.0723 34.5376C28.0723 34.8319 28.3111 35.0708 28.6055 35.0708Z" fill="white"/>
<path d="M28.6055 29.6318H46.4411C46.736 29.6318 46.9743 29.393 46.9743 29.0986C46.9743 28.8043 46.736 28.5654 46.4411 28.5654H28.6055C28.3111 28.5654 28.0723 28.8043 28.0723 29.0986C28.0723 29.393 28.3111 29.6318 28.6055 29.6318Z" fill="white"/>
<path d="M28.6055 40.5093H46.4411C46.736 40.5093 46.9743 40.2709 46.9743 39.9761C46.9743 39.6812 46.736 39.4429 46.4411 39.4429H28.6055C28.3111 39.4429 28.0723 39.6812 28.0723 39.9761C28.0723 40.2709 28.3111 40.5093 28.6055 40.5093Z" fill="white"/>
<path d="M35.7771 44.8818H28.6055C28.3111 44.8818 28.0723 45.1202 28.0723 45.415C28.0723 45.7099 28.3111 45.9482 28.6055 45.9482H35.7771C36.0714 45.9482 36.3103 45.7099 36.3103 45.415C36.3103 45.1202 36.0714 44.8818 35.7771 44.8818Z" fill="white"/>
<path d="M35.7771 50.3203H28.6055C28.3111 50.3203 28.0723 50.5587 28.0723 50.8535C28.0723 51.1484 28.3111 51.3867 28.6055 51.3867H35.7771C36.0714 51.3867 36.3103 51.1484 36.3103 50.8535C36.3103 50.5587 36.0714 50.3203 35.7771 50.3203Z" fill="white"/>
</g>
<defs>
<clipPath id="clip0_748_788">
<rect width="75" height="75" fill="white"/>
</clipPath>
</defs>
</svg>
